<svg>
    <defs>

        <symbol id="arrow" width="11" height="17" viewBox="0 0 11 17" xmlns="http://www.w3.org/2000/svg">
            <path d="M9.99666 9.34159L2.68691 16.6511C2.22192 17.1163 1.46803 17.1163 1.00326 16.6511C0.538463 16.1863 0.538463 15.4324 1.00326 14.9677L7.47126 8.49988L1.00345 2.03231C0.538651 1.56732 0.538651 0.813539 1.00345 0.34874C1.46825 -0.116247 2.22211 -0.116247 2.6871 0.34874L9.99685 7.65836C10.2292 7.89087 10.3453 8.19528 10.3453 8.49984C10.3453 8.80455 10.229 9.10919 9.99666 9.34159Z"/>
        </symbol>

        <symbol id="arrow_big_grey" width="182" height="455" viewBox="0 0 182 455" fill="none" xmlns="http://www.w3.org/2000/svg">
            <path d="M245 439L32 226L242 16" stroke="#F2F2F2" stroke-width="45"/>
        </symbol>

        <symbol id="arrow_big_yellow" width="257" height="721" viewBox="0 0 257 721" fill="none" xmlns="http://www.w3.org/2000/svg">
            <path d="M363 720L1 357.95L357.901 1" stroke="#F9B233"/>
        </symbol>

        <symbol id="icon_facebook" width="9" height="17" viewBox="0 0 9 17" xmlns="http://www.w3.org/2000/svg">
            <path d="M0.480492 9.0542H2.34397V16.7258C2.34397 16.8773 2.4667 17 2.61816 17H5.77775C5.92921 17 6.05194 16.8773 6.05194 16.7258V9.09034H8.19416C8.33345 9.09034 8.45064 8.98582 8.46654 8.84746L8.7919 6.02315C8.80084 5.94545 8.77622 5.86763 8.72423 5.80934C8.67219 5.75099 8.59772 5.71759 8.51957 5.71759H6.05205V3.94718C6.05205 3.41349 6.33941 3.14286 6.90622 3.14286C6.987 3.14286 8.51957 3.14286 8.51957 3.14286C8.67104 3.14286 8.79377 3.02008 8.79377 2.86867V0.276223C8.79377 0.124758 8.67104 0.00202903 8.51957 0.00202903H6.29614C6.28045 0.00126129 6.24563 0 6.1943 0C5.80851 0 4.46754 0.0757322 3.40828 1.05022C2.23462 2.1301 2.39776 3.42309 2.43675 3.64727V5.71754H0.480492C0.329028 5.71754 0.206299 5.84027 0.206299 5.99173V8.77995C0.206299 8.93142 0.329028 9.0542 0.480492 9.0542Z"/>
        </symbol>

        <symbol id="icon_vk" width="20" height="12" viewBox="0 0 20 12" xmlns="http://www.w3.org/2000/svg">
            <path d="M17.7331 5.0652C18.0175 4.69754 18.2433 4.40254 18.41 4.17997C19.6109 2.58331 20.1315 1.56336 19.9719 1.11868L19.9093 1.01453C19.8678 0.951979 19.7599 0.894534 19.5865 0.842537C19.4129 0.790577 19.1908 0.782274 18.9202 0.816576L15.9213 0.837728C15.8518 0.830815 15.7824 0.83243 15.7129 0.842537C15.6435 0.853094 15.5985 0.863689 15.5775 0.873795C15.5566 0.88439 15.5393 0.892881 15.5255 0.899794L15.484 0.931052C15.4492 0.951753 15.4111 0.988309 15.3695 1.04053C15.3278 1.09272 15.2929 1.1532 15.2653 1.22286C14.939 2.06278 14.5677 2.84386 14.1511 3.56585C13.8942 3.99629 13.6581 4.3697 13.4431 4.68514C13.2279 5.0013 13.0474 5.23378 12.9016 5.38275C12.7559 5.53197 12.6238 5.65197 12.5059 5.74192C12.3878 5.8325 12.2976 5.87044 12.2353 5.85666C12.1727 5.84287 12.1137 5.82908 12.0583 5.8148C11.961 5.75251 11.8828 5.66764 11.824 5.55981C11.7649 5.45248 11.7251 5.317 11.7042 5.15376C11.6835 4.99074 11.6711 4.85004 11.6678 4.73184C11.6642 4.61391 11.666 4.44744 11.6731 4.23197C11.68 4.01673 11.6835 3.87122 11.6835 3.79465C11.6835 3.53114 11.6888 3.24466 11.6992 2.93565C11.7095 2.62686 11.7183 2.38198 11.7251 2.20145C11.732 2.02119 11.7355 1.83011 11.7355 1.62869C11.7355 1.42773 11.7233 1.26952 11.6988 1.15482C11.6745 1.04053 11.6379 0.929474 11.5897 0.821648C11.5409 0.714272 11.4698 0.630791 11.376 0.571956C11.2823 0.512858 11.1661 0.466196 11.0273 0.431218C10.6591 0.347737 10.1905 0.303141 9.62146 0.295815C8.33017 0.282478 7.50059 0.365696 7.1327 0.545958C6.98693 0.622526 6.85494 0.726445 6.73701 0.858429C6.61194 1.01134 6.59469 1.09478 6.68505 1.10812C7.10167 1.17067 7.39648 1.32013 7.57005 1.55603L7.63261 1.68088C7.68111 1.77146 7.72965 1.93106 7.77838 2.16005C7.82692 2.38908 7.85818 2.64245 7.87219 2.92021C7.90691 3.42695 7.90691 3.86063 7.87219 4.22186C7.83748 4.58306 7.8046 4.86405 7.77335 5.06501C7.74205 5.26643 7.69516 5.42945 7.63283 5.55429C7.57028 5.67959 7.52869 5.75593 7.50776 5.78373C7.48684 5.81131 7.46959 5.82878 7.4558 5.83573C7.36545 5.87022 7.27186 5.88769 7.17463 5.88769C7.07736 5.88769 6.95939 5.83892 6.82053 5.74165C6.68163 5.64487 6.53748 5.51105 6.38847 5.34089C6.23902 5.171 6.07093 4.93303 5.8833 4.62743C5.6959 4.32233 5.50137 3.96109 5.30018 3.5447L5.1337 3.24256C5.02956 3.04851 4.88721 2.76546 4.70672 2.39411C4.52623 2.02277 4.36641 1.66363 4.22777 1.31622C4.17213 1.17068 4.08888 1.05962 3.97786 0.98305L3.9259 0.951791C3.89118 0.924177 3.83554 0.894534 3.7592 0.863464C3.68263 0.832205 3.60309 0.809663 3.51961 0.795649L0.66642 0.816351C0.374875 0.816351 0.177143 0.882587 0.0729989 1.01453L0.0313711 1.07686C0.0103318 1.1118 0 1.16744 0 1.24356C0 1.32013 0.0209266 1.41372 0.0625544 1.52455C0.47917 2.50359 0.932154 3.44769 1.42143 4.35682C1.91097 5.26643 2.33611 5.99897 2.69709 6.55426C3.05806 7.11 3.42595 7.63376 3.80098 8.12672C4.176 8.61968 4.42408 8.93535 4.54547 9.07402C4.66686 9.21314 4.76228 9.31732 4.83175 9.38649L5.09204 9.63663C5.25851 9.80314 5.50339 10.0027 5.82623 10.2354C6.14904 10.4681 6.50637 10.6971 6.89886 10.9224C7.29091 11.1482 7.74754 11.3319 8.26807 11.4745C8.78864 11.617 9.29539 11.6743 9.78835 11.6462H10.9859C11.2289 11.6255 11.4128 11.5494 11.5377 11.4172L11.5793 11.3652C11.6069 11.3238 11.6331 11.2595 11.6574 11.1728C11.6816 11.0861 11.6941 10.9904 11.6941 10.8865C11.6869 10.5881 11.7097 10.3186 11.7616 10.0795C11.8136 9.83989 11.8727 9.65962 11.9387 9.53778C12.0047 9.41658 12.0792 9.31405 12.1626 9.23057C12.2459 9.14709 12.3047 9.0972 12.3397 9.07973C12.3744 9.06271 12.4023 9.05054 12.423 9.04317C12.5894 8.98772 12.7855 9.04156 13.0113 9.20457C13.2369 9.36808 13.4487 9.56901 13.6466 9.80859C13.8443 10.0482 14.0821 10.317 14.3599 10.6156C14.6374 10.9141 14.8804 11.1362 15.0887 11.2819L15.297 11.4073C15.4359 11.4903 15.6162 11.5666 15.8385 11.6363C16.0606 11.7055 16.2552 11.723 16.4216 11.6883L19.0874 11.6464C19.3511 11.6464 19.556 11.6032 19.7018 11.5163C19.8475 11.43 19.9343 11.3339 19.9621 11.23C19.9897 11.1259 19.9915 11.0084 19.9674 10.8761C19.943 10.7444 19.9187 10.6524 19.8945 10.6005C19.8702 10.5485 19.8476 10.5048 19.8267 10.4703C19.4795 9.8456 18.8166 9.0783 17.8378 8.16895L17.8168 8.14825L17.8065 8.13769L17.7962 8.12755H17.7857C17.3413 7.70402 17.0603 7.41935 16.9423 7.27335C16.7271 6.99608 16.6784 6.71487 16.7966 6.43024C16.8793 6.2144 17.1916 5.75961 17.7331 5.0652Z"/>
        </symbol>

        <symbol id="icon_instagram" width="16" height="16" viewBox="0 0 16 16" xmlns="http://www.w3.org/2000/svg">
            <path d="M2.05366 0H13.9463C15.0758 0 15.9998 0.836183 15.9998 2.05349V13.9465C15.9998 15.1638 15.0758 16 13.9463 16H2.05366C0.923908 16 0 15.1638 0 13.9465V2.05349C0 0.836183 0.923908 0 2.05366 0ZM11.6553 1.77767C11.2591 1.77767 10.9353 2.10163 10.9353 2.49803V4.22215C10.9353 4.61839 11.2591 4.94251 11.6553 4.94251H13.4637C13.8599 4.94251 14.1841 4.61839 14.1841 4.22215V2.49803C14.1841 2.10163 13.8599 1.77767 13.4637 1.77767H11.6553ZM14.1916 6.76634H12.7834C12.9166 7.20136 12.9888 7.66216 12.9888 8.1389C12.9888 10.8002 10.7618 12.9575 8.0152 12.9575C5.26877 12.9575 3.04213 10.8002 3.04213 8.1389C3.04213 7.66183 3.11408 7.20119 3.24748 6.76634H1.778V13.525C1.778 13.8747 2.06417 14.1611 2.41409 14.1611H13.5559C13.9058 14.1611 14.1919 13.8749 14.1919 13.525V6.76634H14.1916ZM8.01503 4.85167C6.24049 4.85167 4.80173 6.24558 4.80173 7.96526C4.80173 9.68493 6.24049 11.0788 8.01503 11.0788C9.78974 11.0788 11.2287 9.68493 11.2287 7.96526C11.2287 6.24558 9.78991 4.85167 8.01503 4.85167Z"/>
        </symbol>


    </defs>
</svg>